<svg width="288" height="274" viewBox="0 0 288 274" fill="none" xmlns="http://www.w3.org/2000/svg">
<path d="M233.349 97.7783H0.5V185.774H233.349V97.7783Z" fill="url(#paint0_linear)"/>
<path d="M225.226 0H8.62264C4.13663 0 0.5 3.63663 0.5 8.12264V66.6415H233.349V8.12264C233.349 3.63663 229.712 0 225.226 0Z" fill="url(#paint1_linear)"/>
<path d="M0.5 185.774V217.375C0.5 218.811 1.07052 220.188 2.08604 221.204L54.6509 273.769V239.925L0.5 185.774Z" fill="#DCE3E9"/>
<path d="M287.5 239.925H54.651V273.769H282.085C285.076 273.769 287.5 271.344 287.5 268.354V239.925Z" fill="#F7F9FB"/>
<path d="M233.349 185.774H0.5L54.6509 239.925H287.5L233.349 185.774Z" fill="#E8ECF0"/>
<path d="M233.349 66.6415H0.5L54.6509 120.792H287.5L233.349 66.6415Z" fill="#E8ECF0"/>
<path d="M0.5 66.6415V97.7783L54.6509 151.929V120.792L0.5 66.6415Z" fill="#DCE3E9"/>
<path d="M287.5 120.792H54.651V151.929H282.085C285.076 151.929 287.5 149.505 287.5 146.514V120.792Z" fill="#F7F9FB"/>
<path fill-rule="evenodd" clip-rule="evenodd" d="M182.491 178.923C172.265 180.097 164.083 183.899 158.306 190.161C155.819 192.858 154.297 195.382 153.264 198.526C152.58 200.607 152.489 201.346 152.501 204.727C152.516 209.23 153.102 211.874 154.921 215.661C156.481 218.907 158.252 221.199 161.152 223.727C164.911 227.001 169.258 228.993 174.869 230.011C177.767 230.537 187.871 230.542 191.772 230.019L194.75 229.62L194.935 228.628C195.176 227.332 196.608 225.914 197.928 225.665C198.505 225.556 199.818 225.546 200.846 225.642C202.662 225.813 202.719 225.797 202.9 225.07C203.156 224.042 202.595 222.939 201.623 222.559C200.967 222.303 200.035 222.43 196.71 223.23C192.878 224.151 192.294 224.214 187.915 224.177C182.337 224.13 178.556 223.561 174.316 222.132C169.74 220.589 167.59 219.333 165.214 216.814C164.09 215.622 162.767 213.943 162.274 213.083C160.727 210.383 159.345 205.17 160.176 205.17C160.643 205.17 160.989 205.887 161.36 207.621C162.183 211.477 165.317 216.14 168.491 218.234C170.333 219.448 173.62 220.845 176.633 221.693C180.641 222.821 189.061 223.523 192.239 222.994C193.245 222.826 193.338 222.73 193.338 221.856C193.338 220.613 192.19 219.444 190.756 219.227C190.161 219.137 187.959 219.077 185.863 219.094C181.921 219.125 177.764 218.484 175.382 217.477C174.106 216.937 174.074 216.781 174.899 215.151C175.616 213.737 175.515 212.415 174.529 210.304C174.079 209.339 173.996 208.884 174.23 208.649C174.725 208.15 175.358 208.846 175.855 210.434C176.599 212.814 176.681 213.92 176.201 215.079C175.954 215.673 175.816 216.261 175.892 216.386C176.154 216.812 183.86 218.359 184.169 218.048C184.219 217.998 183.913 217.335 183.491 216.575L182.724 215.191L180.526 215.392C178.471 215.579 178.334 215.556 178.433 215.032C178.513 214.611 178.828 214.453 179.709 214.393C181.503 214.273 182.198 214.056 182.198 213.617C182.198 213.171 180.952 212.848 179.23 212.848C178.422 212.848 178.094 212.722 178.094 212.411C178.094 211.851 179.283 211.549 180.545 211.787L181.527 211.973L181.691 209.777C181.951 206.312 183.321 203.834 187.337 199.56C188.329 198.504 190.05 196.311 191.163 194.687C194.38 189.991 195.812 188.634 197.553 188.634C198.914 188.634 199.452 189.769 200.38 194.604C200.696 196.246 200.734 196.296 201.785 196.455C202.379 196.545 204.251 196.966 205.944 197.39C207.637 197.814 209.643 198.302 210.402 198.473L211.782 198.785L214.566 196.072C217.333 193.376 217.964 193.037 219.271 193.542C220.576 194.047 221.407 197.895 221.557 204.137C221.616 206.597 221.555 207.09 221.188 207.09C220.837 207.09 220.705 206.436 220.534 203.841C220.082 197.002 219.541 194.767 218.295 194.589C217.752 194.511 217.068 195.057 215.055 197.173C212.969 199.366 212.347 199.854 211.643 199.852C211.169 199.85 209.163 199.391 207.186 198.833C205.209 198.274 202.796 197.726 201.825 197.615C200.652 197.481 199.975 197.254 199.807 196.937C199.669 196.674 199.335 195.263 199.066 193.801C198.525 190.868 198.017 189.815 197.143 189.815C196.318 189.815 194.628 191.625 192.293 195.009C191.182 196.619 189.068 199.298 187.596 200.963C184.221 204.778 183.039 206.929 182.864 209.574C182.708 211.923 183.46 214.612 184.843 216.654L185.766 218.016H188.599C190.773 218.016 191.657 218.139 192.398 218.547C193.554 219.182 194.508 220.653 194.51 221.8C194.511 222.456 194.619 222.599 195.024 222.473C197.824 221.605 200.601 221.155 201.557 221.414C203.225 221.866 204.043 222.954 204.017 224.684L203.996 226.136H205.194C205.853 226.136 206.889 225.868 207.495 225.541C208.501 224.998 208.614 224.989 208.784 225.436C209.012 226.035 208.29 226.615 206.728 227.086C205.866 227.346 205.019 227.344 203.189 227.077C201.866 226.884 200.087 226.727 199.237 226.727C197.919 226.727 197.564 226.854 196.834 227.59C196.132 228.297 195.977 228.702 195.977 229.827C195.977 230.952 196.132 231.358 196.834 232.065C197.605 232.842 197.88 232.928 199.599 232.928C203.284 232.928 208.278 231.422 212.066 229.169C216.702 226.41 220.599 221.959 223.38 216.244C225.553 211.778 225.979 210.003 226 205.318C226.029 198.562 224.557 194.269 220.833 190.252C216.324 185.389 210.787 182.294 203.099 180.338C196.79 178.733 188.878 178.19 182.491 178.923ZM187.138 209.181C187.425 210.765 189.826 211.943 191.54 211.341C192.049 211.162 192.695 211.106 192.976 211.216C193.433 211.395 193.414 211.473 192.793 211.984C191.828 212.776 189.143 212.765 187.838 211.963C186.766 211.305 185.827 209.617 186.114 208.864C186.353 208.236 187.003 208.437 187.138 209.181ZM204.882 214.432C205.576 216.104 208.303 216.627 210.486 215.507C211.855 214.804 212.576 215.162 211.649 216.084C210.81 216.92 208.684 217.404 206.98 217.147C205.257 216.886 203.599 215.444 203.599 214.206C203.599 213.097 204.386 213.236 204.882 214.432ZM211.53 220.553C213.796 221.606 214.42 222.146 213.935 222.635C213.717 222.855 213.246 222.728 212.35 222.21C211.648 221.804 210.25 221.175 209.242 220.811C208.103 220.401 207.41 219.984 207.41 219.709C207.41 219.064 209.044 219.399 211.53 220.553ZM208.081 221.449C209.887 222.367 212.1 224.058 212.1 224.52C212.1 225.318 211.583 225.203 210.094 224.076C209.259 223.445 208.05 222.694 207.407 222.408C206.665 222.078 206.237 221.693 206.237 221.355C206.237 220.665 206.574 220.682 208.081 221.449Z" fill="#FFBE1F"/>
<mask id="path-10-outside-1" maskUnits="userSpaceOnUse" x="151.5" y="177.602" width="76" height="57" fill="black">
<rect fill="white" x="151.5" y="177.602" width="76" height="57"/>
<path fill-rule="evenodd" clip-rule="evenodd" d="M182.491 178.923C172.265 180.097 164.083 183.899 158.306 190.161C155.819 192.858 154.297 195.382 153.264 198.526C152.58 200.607 152.489 201.346 152.501 204.727C152.516 209.23 153.102 211.874 154.921 215.661C156.481 218.907 158.252 221.199 161.152 223.727C164.911 227.001 169.258 228.993 174.869 230.011C177.767 230.537 187.871 230.542 191.772 230.019L194.75 229.62L194.935 228.628C195.176 227.332 196.608 225.914 197.928 225.665C198.505 225.556 199.818 225.546 200.846 225.642C202.662 225.813 202.719 225.797 202.9 225.07C203.156 224.042 202.595 222.939 201.623 222.559C200.967 222.303 200.035 222.43 196.71 223.23C192.878 224.151 192.294 224.214 187.915 224.177C182.337 224.13 178.556 223.561 174.316 222.132C169.74 220.589 167.59 219.333 165.214 216.814C164.09 215.622 162.767 213.943 162.274 213.083C160.727 210.383 159.345 205.17 160.176 205.17C160.643 205.17 160.989 205.887 161.36 207.621C162.183 211.477 165.317 216.14 168.491 218.234C170.333 219.448 173.62 220.845 176.633 221.693C180.641 222.821 189.061 223.523 192.239 222.994C193.245 222.826 193.338 222.73 193.338 221.856C193.338 220.613 192.19 219.444 190.756 219.227C190.161 219.137 187.959 219.077 185.863 219.094C181.921 219.125 177.764 218.484 175.382 217.477C174.106 216.937 174.074 216.781 174.899 215.151C175.616 213.737 175.515 212.415 174.529 210.304C174.079 209.339 173.996 208.884 174.23 208.649C174.725 208.15 175.358 208.846 175.855 210.434C176.599 212.814 176.681 213.92 176.201 215.079C175.954 215.673 175.816 216.261 175.892 216.386C176.154 216.812 183.86 218.359 184.169 218.048C184.219 217.998 183.913 217.335 183.491 216.575L182.724 215.191L180.526 215.392C178.471 215.579 178.334 215.556 178.433 215.032C178.513 214.611 178.828 214.453 179.709 214.393C181.503 214.273 182.198 214.056 182.198 213.617C182.198 213.171 180.952 212.848 179.23 212.848C178.422 212.848 178.094 212.722 178.094 212.411C178.094 211.851 179.283 211.549 180.545 211.787L181.527 211.973L181.691 209.777C181.951 206.312 183.321 203.834 187.337 199.56C188.329 198.504 190.05 196.311 191.163 194.687C194.38 189.991 195.812 188.634 197.553 188.634C198.914 188.634 199.452 189.769 200.38 194.604C200.696 196.246 200.734 196.296 201.785 196.455C202.379 196.545 204.251 196.966 205.944 197.39C207.637 197.814 209.643 198.302 210.402 198.473L211.782 198.785L214.566 196.072C217.333 193.376 217.964 193.037 219.271 193.542C220.576 194.047 221.407 197.895 221.557 204.137C221.616 206.597 221.555 207.09 221.188 207.09C220.837 207.09 220.705 206.436 220.534 203.841C220.082 197.002 219.541 194.767 218.295 194.589C217.752 194.511 217.068 195.057 215.055 197.173C212.969 199.366 212.347 199.854 211.643 199.852C211.169 199.85 209.163 199.391 207.186 198.833C205.209 198.274 202.796 197.726 201.825 197.615C200.652 197.481 199.975 197.254 199.807 196.937C199.669 196.674 199.335 195.263 199.066 193.801C198.525 190.868 198.017 189.815 197.143 189.815C196.318 189.815 194.628 191.625 192.293 195.009C191.182 196.619 189.068 199.298 187.596 200.963C184.221 204.778 183.039 206.929 182.864 209.574C182.708 211.923 183.46 214.612 184.843 216.654L185.766 218.016H188.599C190.773 218.016 191.657 218.139 192.398 218.547C193.554 219.182 194.508 220.653 194.51 221.8C194.511 222.456 194.619 222.599 195.024 222.473C197.824 221.605 200.601 221.155 201.557 221.414C203.225 221.866 204.043 222.954 204.017 224.684L203.996 226.136H205.194C205.853 226.136 206.889 225.868 207.495 225.541C208.501 224.998 208.614 224.989 208.784 225.436C209.012 226.035 208.29 226.615 206.728 227.086C205.866 227.346 205.019 227.344 203.189 227.077C201.866 226.884 200.087 226.727 199.237 226.727C197.919 226.727 197.564 226.854 196.834 227.59C196.132 228.297 195.977 228.702 195.977 229.827C195.977 230.952 196.132 231.358 196.834 232.065C197.605 232.842 197.88 232.928 199.599 232.928C203.284 232.928 208.278 231.422 212.066 229.169C216.702 226.41 220.599 221.959 223.38 216.244C225.553 211.778 225.979 210.003 226 205.318C226.029 198.562 224.557 194.269 220.833 190.252C216.324 185.389 210.787 182.294 203.099 180.338C196.79 178.733 188.878 178.19 182.491 178.923ZM187.138 209.181C187.425 210.765 189.826 211.943 191.54 211.341C192.049 211.162 192.695 211.106 192.976 211.216C193.433 211.395 193.414 211.473 192.793 211.984C191.828 212.776 189.143 212.765 187.838 211.963C186.766 211.305 185.827 209.617 186.114 208.864C186.353 208.236 187.003 208.437 187.138 209.181ZM204.882 214.432C205.576 216.104 208.303 216.627 210.486 215.507C211.855 214.804 212.576 215.162 211.649 216.084C210.81 216.92 208.684 217.404 206.98 217.147C205.257 216.886 203.599 215.444 203.599 214.206C203.599 213.097 204.386 213.236 204.882 214.432ZM211.53 220.553C213.796 221.606 214.42 222.146 213.935 222.635C213.717 222.855 213.246 222.728 212.35 222.21C211.648 221.804 210.25 221.175 209.242 220.811C208.103 220.401 207.41 219.984 207.41 219.709C207.41 219.064 209.044 219.399 211.53 220.553ZM208.081 221.449C209.887 222.367 212.1 224.058 212.1 224.52C212.1 225.318 211.583 225.203 210.094 224.076C209.259 223.445 208.05 222.694 207.407 222.408C206.665 222.078 206.237 221.693 206.237 221.355C206.237 220.665 206.574 220.682 208.081 221.449Z"/>
</mask>
<path fill-rule="evenodd" clip-rule="evenodd" d="M182.491 178.923C172.265 180.097 164.083 183.899 158.306 190.161C155.819 192.858 154.297 195.382 153.264 198.526C152.58 200.607 152.489 201.346 152.501 204.727C152.516 209.23 153.102 211.874 154.921 215.661C156.481 218.907 158.252 221.199 161.152 223.727C164.911 227.001 169.258 228.993 174.869 230.011C177.767 230.537 187.871 230.542 191.772 230.019L194.75 229.62L194.935 228.628C195.176 227.332 196.608 225.914 197.928 225.665C198.505 225.556 199.818 225.546 200.846 225.642C202.662 225.813 202.719 225.797 202.9 225.07C203.156 224.042 202.595 222.939 201.623 222.559C200.967 222.303 200.035 222.43 196.71 223.23C192.878 224.151 192.294 224.214 187.915 224.177C182.337 224.13 178.556 223.561 174.316 222.132C169.74 220.589 167.59 219.333 165.214 216.814C164.09 215.622 162.767 213.943 162.274 213.083C160.727 210.383 159.345 205.17 160.176 205.17C160.643 205.17 160.989 205.887 161.36 207.621C162.183 211.477 165.317 216.14 168.491 218.234C170.333 219.448 173.62 220.845 176.633 221.693C180.641 222.821 189.061 223.523 192.239 222.994C193.245 222.826 193.338 222.73 193.338 221.856C193.338 220.613 192.19 219.444 190.756 219.227C190.161 219.137 187.959 219.077 185.863 219.094C181.921 219.125 177.764 218.484 175.382 217.477C174.106 216.937 174.074 216.781 174.899 215.151C175.616 213.737 175.515 212.415 174.529 210.304C174.079 209.339 173.996 208.884 174.23 208.649C174.725 208.15 175.358 208.846 175.855 210.434C176.599 212.814 176.681 213.92 176.201 215.079C175.954 215.673 175.816 216.261 175.892 216.386C176.154 216.812 183.86 218.359 184.169 218.048C184.219 217.998 183.913 217.335 183.491 216.575L182.724 215.191L180.526 215.392C178.471 215.579 178.334 215.556 178.433 215.032C178.513 214.611 178.828 214.453 179.709 214.393C181.503 214.273 182.198 214.056 182.198 213.617C182.198 213.171 180.952 212.848 179.23 212.848C178.422 212.848 178.094 212.722 178.094 212.411C178.094 211.851 179.283 211.549 180.545 211.787L181.527 211.973L181.691 209.777C181.951 206.312 183.321 203.834 187.337 199.56C188.329 198.504 190.05 196.311 191.163 194.687C194.38 189.991 195.812 188.634 197.553 188.634C198.914 188.634 199.452 189.769 200.38 194.604C200.696 196.246 200.734 196.296 201.785 196.455C202.379 196.545 204.251 196.966 205.944 197.39C207.637 197.814 209.643 198.302 210.402 198.473L211.782 198.785L214.566 196.072C217.333 193.376 217.964 193.037 219.271 193.542C220.576 194.047 221.407 197.895 221.557 204.137C221.616 206.597 221.555 207.09 221.188 207.09C220.837 207.09 220.705 206.436 220.534 203.841C220.082 197.002 219.541 194.767 218.295 194.589C217.752 194.511 217.068 195.057 215.055 197.173C212.969 199.366 212.347 199.854 211.643 199.852C211.169 199.85 209.163 199.391 207.186 198.833C205.209 198.274 202.796 197.726 201.825 197.615C200.652 197.481 199.975 197.254 199.807 196.937C199.669 196.674 199.335 195.263 199.066 193.801C198.525 190.868 198.017 189.815 197.143 189.815C196.318 189.815 194.628 191.625 192.293 195.009C191.182 196.619 189.068 199.298 187.596 200.963C184.221 204.778 183.039 206.929 182.864 209.574C182.708 211.923 183.46 214.612 184.843 216.654L185.766 218.016H188.599C190.773 218.016 191.657 218.139 192.398 218.547C193.554 219.182 194.508 220.653 194.51 221.8C194.511 222.456 194.619 222.599 195.024 222.473C197.824 221.605 200.601 221.155 201.557 221.414C203.225 221.866 204.043 222.954 204.017 224.684L203.996 226.136H205.194C205.853 226.136 206.889 225.868 207.495 225.541C208.501 224.998 208.614 224.989 208.784 225.436C209.012 226.035 208.29 226.615 206.728 227.086C205.866 227.346 205.019 227.344 203.189 227.077C201.866 226.884 200.087 226.727 199.237 226.727C197.919 226.727 197.564 226.854 196.834 227.59C196.132 228.297 195.977 228.702 195.977 229.827C195.977 230.952 196.132 231.358 196.834 232.065C197.605 232.842 197.88 232.928 199.599 232.928C203.284 232.928 208.278 231.422 212.066 229.169C216.702 226.41 220.599 221.959 223.38 216.244C225.553 211.778 225.979 210.003 226 205.318C226.029 198.562 224.557 194.269 220.833 190.252C216.324 185.389 210.787 182.294 203.099 180.338C196.79 178.733 188.878 178.19 182.491 178.923ZM187.138 209.181C187.425 210.765 189.826 211.943 191.54 211.341C192.049 211.162 192.695 211.106 192.976 211.216C193.433 211.395 193.414 211.473 192.793 211.984C191.828 212.776 189.143 212.765 187.838 211.963C186.766 211.305 185.827 209.617 186.114 208.864C186.353 208.236 187.003 208.437 187.138 209.181ZM204.882 214.432C205.576 216.104 208.303 216.627 210.486 215.507C211.855 214.804 212.576 215.162 211.649 216.084C210.81 216.92 208.684 217.404 206.98 217.147C205.257 216.886 203.599 215.444 203.599 214.206C203.599 213.097 204.386 213.236 204.882 214.432ZM211.53 220.553C213.796 221.606 214.42 222.146 213.935 222.635C213.717 222.855 213.246 222.728 212.35 222.21C211.648 221.804 210.25 221.175 209.242 220.811C208.103 220.401 207.41 219.984 207.41 219.709C207.41 219.064 209.044 219.399 211.53 220.553ZM208.081 221.449C209.887 222.367 212.1 224.058 212.1 224.52C212.1 225.318 211.583 225.203 210.094 224.076C209.259 223.445 208.05 222.694 207.407 222.408C206.665 222.078 206.237 221.693 206.237 221.355C206.237 220.665 206.574 220.682 208.081 221.449Z" fill="#FFBE1F"/>
<path fill-rule="evenodd" clip-rule="evenodd" d="M182.491 178.923C172.265 180.097 164.083 183.899 158.306 190.161C155.819 192.858 154.297 195.382 153.264 198.526C152.58 200.607 152.489 201.346 152.501 204.727C152.516 209.23 153.102 211.874 154.921 215.661C156.481 218.907 158.252 221.199 161.152 223.727C164.911 227.001 169.258 228.993 174.869 230.011C177.767 230.537 187.871 230.542 191.772 230.019L194.75 229.62L194.935 228.628C195.176 227.332 196.608 225.914 197.928 225.665C198.505 225.556 199.818 225.546 200.846 225.642C202.662 225.813 202.719 225.797 202.9 225.07C203.156 224.042 202.595 222.939 201.623 222.559C200.967 222.303 200.035 222.43 196.71 223.23C192.878 224.151 192.294 224.214 187.915 224.177C182.337 224.13 178.556 223.561 174.316 222.132C169.74 220.589 167.59 219.333 165.214 216.814C164.09 215.622 162.767 213.943 162.274 213.083C160.727 210.383 159.345 205.17 160.176 205.17C160.643 205.17 160.989 205.887 161.36 207.621C162.183 211.477 165.317 216.14 168.491 218.234C170.333 219.448 173.62 220.845 176.633 221.693C180.641 222.821 189.061 223.523 192.239 222.994C193.245 222.826 193.338 222.73 193.338 221.856C193.338 220.613 192.19 219.444 190.756 219.227C190.161 219.137 187.959 219.077 185.863 219.094C181.921 219.125 177.764 218.484 175.382 217.477C174.106 216.937 174.074 216.781 174.899 215.151C175.616 213.737 175.515 212.415 174.529 210.304C174.079 209.339 173.996 208.884 174.23 208.649C174.725 208.15 175.358 208.846 175.855 210.434C176.599 212.814 176.681 213.92 176.201 215.079C175.954 215.673 175.816 216.261 175.892 216.386C176.154 216.812 183.86 218.359 184.169 218.048C184.219 217.998 183.913 217.335 183.491 216.575L182.724 215.191L180.526 215.392C178.471 215.579 178.334 215.556 178.433 215.032C178.513 214.611 178.828 214.453 179.709 214.393C181.503 214.273 182.198 214.056 182.198 213.617C182.198 213.171 180.952 212.848 179.23 212.848C178.422 212.848 178.094 212.722 178.094 212.411C178.094 211.851 179.283 211.549 180.545 211.787L181.527 211.973L181.691 209.777C181.951 206.312 183.321 203.834 187.337 199.56C188.329 198.504 190.05 196.311 191.163 194.687C194.38 189.991 195.812 188.634 197.553 188.634C198.914 188.634 199.452 189.769 200.38 194.604C200.696 196.246 200.734 196.296 201.785 196.455C202.379 196.545 204.251 196.966 205.944 197.39C207.637 197.814 209.643 198.302 210.402 198.473L211.782 198.785L214.566 196.072C217.333 193.376 217.964 193.037 219.271 193.542C220.576 194.047 221.407 197.895 221.557 204.137C221.616 206.597 221.555 207.09 221.188 207.09C220.837 207.09 220.705 206.436 220.534 203.841C220.082 197.002 219.541 194.767 218.295 194.589C217.752 194.511 217.068 195.057 215.055 197.173C212.969 199.366 212.347 199.854 211.643 199.852C211.169 199.85 209.163 199.391 207.186 198.833C205.209 198.274 202.796 197.726 201.825 197.615C200.652 197.481 199.975 197.254 199.807 196.937C199.669 196.674 199.335 195.263 199.066 193.801C198.525 190.868 198.017 189.815 197.143 189.815C196.318 189.815 194.628 191.625 192.293 195.009C191.182 196.619 189.068 199.298 187.596 200.963C184.221 204.778 183.039 206.929 182.864 209.574C182.708 211.923 183.46 214.612 184.843 216.654L185.766 218.016H188.599C190.773 218.016 191.657 218.139 192.398 218.547C193.554 219.182 194.508 220.653 194.51 221.8C194.511 222.456 194.619 222.599 195.024 222.473C197.824 221.605 200.601 221.155 201.557 221.414C203.225 221.866 204.043 222.954 204.017 224.684L203.996 226.136H205.194C205.853 226.136 206.889 225.868 207.495 225.541C208.501 224.998 208.614 224.989 208.784 225.436C209.012 226.035 208.29 226.615 206.728 227.086C205.866 227.346 205.019 227.344 203.189 227.077C201.866 226.884 200.087 226.727 199.237 226.727C197.919 226.727 197.564 226.854 196.834 227.59C196.132 228.297 195.977 228.702 195.977 229.827C195.977 230.952 196.132 231.358 196.834 232.065C197.605 232.842 197.88 232.928 199.599 232.928C203.284 232.928 208.278 231.422 212.066 229.169C216.702 226.41 220.599 221.959 223.38 216.244C225.553 211.778 225.979 210.003 226 205.318C226.029 198.562 224.557 194.269 220.833 190.252C216.324 185.389 210.787 182.294 203.099 180.338C196.79 178.733 188.878 178.19 182.491 178.923ZM187.138 209.181C187.425 210.765 189.826 211.943 191.54 211.341C192.049 211.162 192.695 211.106 192.976 211.216C193.433 211.395 193.414 211.473 192.793 211.984C191.828 212.776 189.143 212.765 187.838 211.963C186.766 211.305 185.827 209.617 186.114 208.864C186.353 208.236 187.003 208.437 187.138 209.181ZM204.882 214.432C205.576 216.104 208.303 216.627 210.486 215.507C211.855 214.804 212.576 215.162 211.649 216.084C210.81 216.92 208.684 217.404 206.98 217.147C205.257 216.886 203.599 215.444 203.599 214.206C203.599 213.097 204.386 213.236 204.882 214.432ZM211.53 220.553C213.796 221.606 214.42 222.146 213.935 222.635C213.717 222.855 213.246 222.728 212.35 222.21C211.648 221.804 210.25 221.175 209.242 220.811C208.103 220.401 207.41 219.984 207.41 219.709C207.41 219.064 209.044 219.399 211.53 220.553ZM208.081 221.449C209.887 222.367 212.1 224.058 212.1 224.52C212.1 225.318 211.583 225.203 210.094 224.076C209.259 223.445 208.05 222.694 207.407 222.408C206.665 222.078 206.237 221.693 206.237 221.355C206.237 220.665 206.574 220.682 208.081 221.449Z" stroke="#73787D" stroke-width="2" mask="url(#path-10-outside-1)"/>
<path d="M198.151 214.206C199.636 214.553 199.824 215.999 198.925 216.733C198.104 217.402 197.108 217.425 195.812 216.806C194.515 216.186 194.222 215.274 195.092 214.564C195.917 213.891 196.98 213.933 198.151 214.206Z" fill="#73787D"/>
<defs>
<linearGradient id="paint0_linear" x1="125.123" y1="129.592" x2="108.613" y2="198.679" gradientUnits="userSpaceOnUse">
<stop stop-color="#E3E9EF"/>
<stop offset="1" stop-color="#F9FBFD"/>
</linearGradient>
<linearGradient id="paint1_linear" x1="116.925" y1="-23.3844" x2="99.9112" y2="96.7221" gradientUnits="userSpaceOnUse">
<stop stop-color="#E9EEF2"/>
<stop offset="1" stop-color="#F8F9FB"/>
</linearGradient>
</defs>
</svg>
